<svg viewBox="0 0 243.489 81.188" xmlns="http://www.w3.org/2000/svg">
    <g>
        <path
            d="M4.445 34.474V0h7.952l4.593 8.791 3.852 7.36h.099l3.803-7.36L29.288 0h8v34.474h-7.062V11.853h-.148l-2.519 5.038-6.717 12.2-6.569-12.15-2.617-5.433h-.148v22.966zm63.91 0h-23.46V0h23.46v6.668H52.401v7.062h13.68v6.618h-13.68v7.458h15.952zM82.38 21.83v12.644h-7.507V0h16.348q3.21 0 5.531 1.383 2.321 1.383 3.606 3.852 1.284 2.47 1.284 5.779 0 3.457-1.58 6.124-1.532 2.618-4.693 3.803l6.767 13.533H93.79L87.764 21.83zm0-6.322h7.902q1.136 0 1.926-.395t1.235-1.136q.445-.79.445-1.877V9.927q0-1.136-.445-1.877Q93 7.31 92.21 6.914q-.79-.395-1.926-.395h-7.902zm25.781 18.966V0h16.743q4.247 0 6.667 2.42t2.42 6.42q0 2.618-.889 4.248-.84 1.58-2.32 2.321-1.433.741-3.211.84v.296q1.235 0 2.568.445 1.334.444 2.519 1.383 1.185.938 1.926 2.519.74 1.53.74 3.753 0 2.717-1.184 4.939-1.136 2.223-3.161 3.556-1.976 1.334-4.544 1.334zm7.507-14.225v7.903h8.643q.988 0 1.68-.346.74-.395 1.135-1.087.395-.691.395-1.679v-1.679q0-.988-.395-1.68-.395-.69-1.136-1.036-.691-.396-1.679-.396zm0-13.927v7.803h7.458q.988 0 1.68-.345.74-.396 1.086-1.087.395-.74.395-1.729V9.483q0-.988-.395-1.68-.346-.74-1.087-1.086-.691-.395-1.68-.395zm40.5 28.152H139.77v-5.977h4.445V5.977h-4.445V0h16.397v5.976h-4.445v22.521h4.445zm26.225 0l-9.434-16.299-3.309-6.914h-.148v23.213h-7.063V0h8.199l9.433 16.298 3.31 6.915h.148V0h7.062v34.474z"
            aria-label="MERBIN" />
        <path
            d="M206.44 0h37.049v59.119q0 6.747-2.973 11.778-2.859 4.917-8.005 7.661-5.145 2.63-11.892 2.63-9.262 0-14.98-5.03-5.603-5.032-7.204-13.151l8.69-2.058q1.144 5.145 4.346 8.461 3.316 3.202 9.377 3.202 6.175 0 9.605-3.773 3.43-3.774 3.43-11.435V8.462H206.44z"
            aria-label="J" fill="#0070f2" />
        <path
            d="M31.856 80.481h-7.804l-2.469-8.198H10.075l-2.47 8.198H0l11.36-34.473h9.285zm-12.1-14.57l-2.124-7.16-1.729-5.927h-.247l-1.679 5.926-2.124 7.162zM56.6 80.482l-9.434-16.298-3.309-6.914h-.148V80.48h-7.062V46.008h8.198l9.433 16.298 3.31 6.915h.148V46.008h7.062V80.48zm26.966.593q-4.494 0-7.704-1.58-3.161-1.58-5.384-4l4.939-4.99q1.729 1.976 3.902 2.964 2.222.988 4.741.988 2.766 0 4.1-1.136 1.333-1.136 1.333-3.013 0-.938-.346-1.679-.296-.79-1.185-1.284-.84-.543-2.47-.74l-3.407-.445q-3.606-.494-5.977-1.778-2.32-1.334-3.457-3.458-1.136-2.173-1.136-5.037 0-3.112 1.531-5.433 1.58-2.37 4.445-3.704 2.914-1.334 6.964-1.334 3.902 0 6.865 1.284 2.964 1.235 5.087 3.556l-4.988 5.038q-1.235-1.432-3.013-2.321-1.728-.939-4.395-.939-2.52 0-3.754.89-1.235.888-1.235 2.469 0 1.185.396 1.926.444.74 1.333 1.136.938.395 2.37.642l3.409.543q3.556.544 5.877 1.828 2.321 1.284 3.457 3.358Q97 66.9 97 69.863q0 3.309-1.58 5.828-1.531 2.519-4.544 3.95-3.013 1.433-7.31 1.433zm43.117-.593h-23.46V46.008h23.46v6.667H110.73v7.063h13.68v6.618h-13.68v7.458h15.953zm27.164 0h-20.645V46.008h7.507v27.806h13.138zm5.531 0V46.008h7.952l4.593 8.791 3.853 7.36h.098l3.803-7.36 4.544-8.791h8.001V80.48h-7.063v-22.62h-.148l-2.519 5.038-6.716 12.199-6.57-12.15-2.617-5.432h-.148V80.48z"
            aria-label="ANSELM" />
    </g>
</svg>